<svg xmlns="http://www.w3.org/2000/svg" width="1600" height="900" viewBox="0 0 1600 900">
  <g id="Group_180" data-name="Group 180" transform="translate(-110 -75)">
    <rect id="Rectangle_1427" data-name="Rectangle 1427" width="1600" height="900" transform="translate(110 75)" fill="#e9e9e9"/>
    <g id="undraw_creative-flow_t3kz" transform="translate(393 134)" opacity="0.65">
      <path id="Path_2480" data-name="Path 2480" d="M358.946,632.829a8.583,8.583,0,0,1-2.945-.521l-63.933-23.237a8.629,8.629,0,0,1,1.29-16.579l176.577-34.57a8.647,8.647,0,0,1,4.291.249l49.339,15.812a8.631,8.631,0,0,1-.468,16.574l-161.982,42a8.613,8.613,0,0,1-2.169.277Z" transform="translate(32.641 63.572)" fill="#6c63ff"/>
      <path id="Path_2481" data-name="Path 2481" d="M522.925,525.827,680.133,544.72l-28.661,55.273L512.867,579.871c-11.413,8.094-27.274,11.7-43.764,8.63-28.853-5.37-48.64-29.08-44.2-52.958s31.436-38.882,60.289-33.513c16.49,3.069,29.992,12.139,37.729,23.8Z" transform="translate(48.359 57.096)" fill="#ed9da0"/>
      <path id="Path_2482" data-name="Path 2482" d="M733.948,134.547A125.118,125.118,0,1,0,608.129,292.235l65.057,148L765.41,308.871s-34.568-25.8-58.34-59.01a124.981,124.981,0,0,0,26.878-115.314Z" transform="translate(55.622 4.792)" fill="#ed9da0"/>
      <path id="Path_2483" data-name="Path 2483" d="M848.088,364.115A111.107,111.107,0,0,0,746.031,294.78c-56.65-.546-128.759,14.269-131.732,92.561-4.923,129.633,0,77.455,0,77.455s-39.108,97.379,0,144.348S687.51,748.687,687.51,748.687H925.157s-41.025-108.425-33.98-182.4c4.782-50.212-18.027-140.19-43.089-202.176Z" transform="translate(68.035 33.597)" fill="#6c63ff"/>
      <path id="Path_2484" data-name="Path 2484" d="M539.013,463.482,387.544,611.429l9.145,3.227L549.58,470.528s1.761-10.568-10.568-7.045Z" transform="translate(44.171 52.745)" fill="#090814"/>
      <path id="Path_2485" data-name="Path 2485" d="M980.05,442.964c-6.51,11.737-25.312,11.072-34.589,1.373s-10.826-24.49-9.371-37.832,5.387-26.464,5.116-39.883c-.517-25.605-16.133-48.371-33.289-67.387s-36.77-36.483-48.491-59.254l-1.416-1.458c5.007-16.54-7.137-33.436-20.809-44.006s-30.067-18.63-39.4-33.174c-7.941-12.372-9.547-27.593-13.022-41.879C771.31,64.116,724.757,18.2,669.227,5.5s-117.412,8.417-153.6,52.412l.87-1.824C493,60.848,473,79.92,467.14,103.174c-1.7,6.736-2.263,13.978-.005,20.547s7.766,12.307,14.627,13.395c7.359,1.167,14.721-3.163,19.256-9.075s6.8-13.209,8.972-20.335c8.168,30.006,33.811,54.556,64.142,61.413a22.948,22.948,0,0,0,32.707,23.63l1.745-1.661,25.7,1.156A86.118,86.118,0,0,0,656.3,315.1c15.518,10.231,33.846,15.152,51.855,19.75s36.376,9.163,52.256,18.822S789.6,379.11,791.43,397.606,780.5,436.3,762.036,438.421l42.151,25.88c-1.254,31.821,22.365,62.865,53.368,70.145q-4.257,14.284-8.512,28.568c17.245-6.133,36.124-.547,54.332,1.311s40.285-2.561,47.281-19.474c7.439-17.982-6.766-37.048-19.978-51.333,26.9,2.683,52.693-23.724,49.375-50.555Z" transform="translate(53.073 0.211)" fill="#090814"/>
      <path id="Path_2486" data-name="Path 2486" d="M161.041,473.632l-.071-1.79L150.253,203.207l11.973-8.619.645.052,250.145,20.186,27.829,12.76.05,1.072,10.762,228.3L161.04,473.632Zm-7.193-268.675L164.419,469.91l283.554-16.268L437.426,229.893l-25.315-11.608L163.233,198.2l-9.386,6.754Z" transform="translate(17.125 22.179)" fill="#090814"/>
      <path id="Path_2487" data-name="Path 2487" d="M412.582,368.292H187.688a15.975,15.975,0,0,1-15.958-15.956V286.289a15.986,15.986,0,0,1,16.646-15.958l224.9,9.706a15.9,15.9,0,0,1,15.268,15.939v56.36a15.975,15.975,0,0,1-15.958,15.956Z" transform="translate(19.573 30.81)" fill="#d6d6e3"/>
      <path id="Path_2488" data-name="Path 2488" d="M279.957,287.273v75.558a16.462,16.462,0,0,1-.617,4.491H187.6a15.071,15.071,0,0,1-15.076-15.076V286.2a15.1,15.1,0,0,1,15.728-15.076l86.213,3.716a16.728,16.728,0,0,1,5.5,12.435Z" transform="translate(19.663 30.9)" fill="#6c63ff"/>
      <rect id="Rectangle_1428" data-name="Rectangle 1428" width="64.052" height="3.523" transform="translate(313.23 334.899)" fill="#090814"/>
      <rect id="Rectangle_1429" data-name="Rectangle 1429" width="114.081" height="3.523" transform="translate(313.23 354.5)" fill="#090814"/>
      <path id="Path_2489" data-name="Path 2489" d="M100.848,110.453,9.162,101.284,0,7.836l89.853,11,10.994,91.615ZM12.386,98.068l84.441,8.443L86.685,22,3.935,11.867l8.45,86.2Z" transform="translate(0 0.893)" fill="#090814"/>
      <rect id="Rectangle_1430" data-name="Rectangle 1430" width="3.524" height="51.349" transform="translate(24.683 38.916) rotate(-84.094)" fill="#090814"/>
      <rect id="Rectangle_1431" data-name="Rectangle 1431" width="3.524" height="51.3" transform="translate(24.7 53.273) rotate(-84.652)" fill="#090814"/>
      <rect id="Rectangle_1432" data-name="Rectangle 1432" width="3.524" height="51.239" transform="translate(24.724 65.524) rotate(-85.429)" fill="#090814"/>
      <path id="Path_2490" data-name="Path 2490" d="M417.058,154.722l-91.685-9.169L316.211,52.1l89.853,11,10.994,91.615ZM328.6,142.337l84.441,8.443L402.9,66.269l-82.75-10.132,8.45,86.2Z" transform="translate(36.041 5.939)" fill="#090814"/>
      <rect id="Rectangle_1433" data-name="Rectangle 1433" width="3.524" height="51.349" transform="translate(376.935 88.232) rotate(-84.094)" fill="#090814"/>
      <rect id="Rectangle_1434" data-name="Rectangle 1434" width="3.524" height="51.3" transform="translate(376.953 102.587) rotate(-84.652)" fill="#090814"/>
      <rect id="Rectangle_1435" data-name="Rectangle 1435" width="3.524" height="51.239" transform="translate(376.976 114.839) rotate(-85.429)" fill="#090814"/>
      <path id="Path_2491" data-name="Path 2491" d="M258.8,123.7,157,110.93V0l103.62,16.288L258.8,123.7ZM160.519,107.82l94.821,11.892,1.7-100.421L160.519,4.121v103.7Z" transform="translate(17.894)" fill="#090814"/>
      <rect id="Rectangle_1436" data-name="Rectangle 1436" width="3.524" height="58.547" transform="translate(200.778 40.675) rotate(-83.089)" fill="#090814"/>
      <rect id="Rectangle_1437" data-name="Rectangle 1437" width="3.524" height="51.349" transform="translate(202.57 60.052) rotate(-84.094)" fill="#090814"/>
      <path id="Path_2492" data-name="Path 2492" d="M443.823,234.691,148.732,212.617v-19.1a17.552,17.552,0,0,1,19.3-17.466l259.983,25.989a17.5,17.5,0,0,1,15.808,17.466v15.18Z" transform="translate(16.952 20.056)" fill="#090814"/>
      <circle id="Ellipse_97" data-name="Ellipse 97" cx="6.164" cy="6.164" r="6.164" transform="translate(186.9 209.768)" fill="#fff"/>
      <circle id="Ellipse_98" data-name="Ellipse 98" cx="6.164" cy="6.164" r="6.164" transform="translate(208.036 213.29)" fill="#fff"/>
      <circle id="Ellipse_99" data-name="Ellipse 99" cx="6.164" cy="6.164" r="6.164" transform="translate(227.41 215.051)" fill="#fff"/>
      <path id="Path_2493" data-name="Path 2493" d="M473.815,605.918,626.9,646.358,590.877,697.14,456.384,658.054c-12.422,6.438-28.629,7.817-44.537,2.5-27.834-9.306-44.154-35.523-36.453-58.558s36.508-34.164,64.342-24.858c15.908,5.319,28.026,16.168,34.078,28.783Z" transform="translate(42.569 65.406)" fill="#ed9da0"/>
      <path id="Path_2494" data-name="Path 2494" d="M761.123,451.182S754.437,744.868,658.67,735.074,531.2,712.951,531.2,712.951s-19.374-73.973,14.09-75.734,77.135-10,77.135-10v-213" transform="translate(59.909 47.211)" fill="#6c63ff"/>
    </g>
  </g>
</svg>
